HIERARCHY
ROOT mixamorig:Hips
{
	OFFSET 0.000000 35.069874 -0.029489
	CHANNELS 6 Xposition Yposition Zposition Xrotation Yrotation Zrotation
	JOINT mixamorig:Spine
	{
		OFFSET 0.000000 6.876060 0.125662
		CHANNELS 3 Xrotation Yrotation Zrotation
		JOINT mixamorig:Spine1
		{
			OFFSET 0.000000 8.022060 0.146603
			CHANNELS 3 Xrotation Yrotation Zrotation
			JOINT mixamorig:Spine2
			{
				OFFSET 0.000000 9.168079 0.167547
				CHANNELS 3 Xrotation Yrotation Zrotation
				JOINT mixamorig:Neck
				{
					OFFSET 0.000000 10.314075 0.188489
					CHANNELS 3 Xrotation Yrotation Zrotation
					JOINT mixamorig:Head
					{
						OFFSET 0.000000 7.643753 -2.377445
						CHANNELS 3 Xrotation Yrotation Zrotation
						JOINT mixamorig:HeadTop_End
						{
							OFFSET 0.000000 43.788605 -13.619637
							CHANNELS 3 Xrotation Yrotation Zrotation
							End Site
							{
								OFFSET 0.000000 45.857788 0.000000
							}
						}
					}
				}
				JOINT mixamorig:LeftShoulder
				{
					OFFSET 4.392187 8.825001 0.174995
					CHANNELS 3 Xrotation Yrotation Zrotation
					JOINT mixamorig:LeftArm
					{
						OFFSET 8.774866 -2.970879 -0.026997
						CHANNELS 3 Xrotation Yrotation Zrotation
						JOINT mixamorig:LeftForeArm
						{
							OFFSET 8.450586 -0.797432 -0.648343
							CHANNELS 3 Xrotation Yrotation Zrotation
							JOINT mixamorig:LeftHand
							{
								OFFSET 18.458662 0.962311 0.193148
								CHANNELS 3 Xrotation Yrotation Zrotation
								JOINT mixamorig:LeftHandThumb1
								{
									OFFSET 2.379990 -1.333382 2.680594
									CHANNELS 3 Xrotation Yrotation Zrotation
									JOINT mixamorig:LeftHandThumb2
									{
										OFFSET 1.903984 -1.066746 2.144473
										CHANNELS 3 Xrotation Yrotation Zrotation
										JOINT mixamorig:LeftHandThumb3
										{
											OFFSET 0.966393 -1.489639 2.964555
											CHANNELS 3 Xrotation Yrotation Zrotation
											JOINT mixamorig:LeftHandThumb4
											{
												OFFSET 1.205181 -0.823021 1.625701
												CHANNELS 3 Xrotation Yrotation Zrotation
												End Site
												{
													OFFSET 1.050617 -0.818157 1.731923
												}
											}
										}
									}
								}
								JOINT mixamorig:LeftHandIndex1
								{
									OFFSET 7.830624 -0.787468 2.563931
									CHANNELS 3 Xrotation Yrotation Zrotation
									JOINT mixamorig:LeftHandIndex2
									{
										OFFSET 3.312897 -0.052605 1.515312
										CHANNELS 3 Xrotation Yrotation Zrotation
										JOINT mixamorig:LeftHandIndex3
										{
											OFFSET 3.460667 -0.207008 1.581951
											CHANNELS 3 Xrotation Yrotation Zrotation
											JOINT mixamorig:LeftHandIndex4
											{
												OFFSET 2.183182 0.110458 0.999585
												CHANNELS 3 Xrotation Yrotation Zrotation
												End Site
												{
													OFFSET 2.183868 0.110451 0.998074
												}
											}
										}
									}
								}
								JOINT mixamorig:LeftHandMiddle1
								{
									OFFSET 8.556145 -0.261200 0.258753
									CHANNELS 3 Xrotation Yrotation Zrotation
									JOINT mixamorig:LeftHandMiddle2
									{
										OFFSET 3.828903 -0.489014 -0.111505
										CHANNELS 3 Xrotation Yrotation Zrotation
										JOINT mixamorig:LeftHandMiddle3
										{
											OFFSET 3.696209 -0.166595 -0.107596
											CHANNELS 3 Xrotation Yrotation Zrotation
											JOINT mixamorig:LeftHandMiddle4
											{
												OFFSET 2.259281 0.534500 -0.065675
												CHANNELS 3 Xrotation Yrotation Zrotation
												End Site
												{
													OFFSET 2.259735 0.534134 -0.051267
												}
											}
										}
									}
								}
								JOINT mixamorig:LeftHandRing1
								{
									OFFSET 8.509293 -0.556679 -3.044941
									CHANNELS 3 Xrotation Yrotation Zrotation
									JOINT mixamorig:LeftHandRing2
									{
										OFFSET 2.995171 -0.303261 -0.843591
										CHANNELS 3 Xrotation Yrotation Zrotation
										JOINT mixamorig:LeftHandRing3
										{
											OFFSET 2.968273 -0.101997 -0.834287
											CHANNELS 3 Xrotation Yrotation Zrotation
											JOINT mixamorig:LeftHandRing4
											{
												OFFSET 1.521358 -0.461468 -0.418735
												CHANNELS 3 Xrotation Yrotation Zrotation
												End Site
												{
													OFFSET 1.516514 -0.460747 -0.436712
												}
											}
										}
									}
								}
							}
						}
					}
				}
				JOINT mixamorig:RightShoulder
				{
					OFFSET -4.392150 8.825024 0.141388
					CHANNELS 3 Xrotation Yrotation Zrotation
					JOINT mixamorig:RightArm
					{
						OFFSET -8.774886 -2.970947 -0.094209
						CHANNELS 3 Xrotation Yrotation Zrotation
						JOINT mixamorig:RightForeArm
						{
							OFFSET -8.450586 -0.797386 -0.330665
							CHANNELS 3 Xrotation Yrotation Zrotation
							JOINT mixamorig:RightHand
							{
								OFFSET -18.458664 0.962341 0.025780
								CHANNELS 3 Xrotation Yrotation Zrotation
								JOINT mixamorig:RightHandThumb1
								{
									OFFSET -2.390282 -1.240040 2.604684
									CHANNELS 3 Xrotation Yrotation Zrotation
									JOINT mixamorig:RightHandThumb2
									{
										OFFSET -1.912228 -0.992111 2.083740
										CHANNELS 3 Xrotation Yrotation Zrotation
										JOINT mixamorig:RightHandThumb3
										{
											OFFSET -0.876358 -1.555370 2.930126
											CHANNELS 3 Xrotation Yrotation Zrotation
											JOINT mixamorig:RightHandThumb4
											{
												OFFSET -1.227077 -0.755932 1.835223
												CHANNELS 3 Xrotation Yrotation Zrotation
												End Site
												{
													OFFSET -1.124962 -0.750702 1.901603
												}
											}
										}
									}
								}
								JOINT mixamorig:RightHandIndex1
								{
									OFFSET -8.716801 -0.633743 3.098187
									CHANNELS 3 Xrotation Yrotation Zrotation
									JOINT mixamorig:RightHandIndex2
									{
										OFFSET -3.319706 -0.240585 1.198087
										CHANNELS 3 Xrotation Yrotation Zrotation
										JOINT mixamorig:RightHandIndex3
										{
											OFFSET -3.153255 -0.154724 1.138827
											CHANNELS 3 Xrotation Yrotation Zrotation
											JOINT mixamorig:RightHandIndex4
											{
												OFFSET -1.818684 -0.003197 0.655154
												CHANNELS 3 Xrotation Yrotation Zrotation
												End Site
												{
													OFFSET -1.818668 -0.003197 0.655188
												}
											}
										}
									}
								}
								JOINT mixamorig:RightHandMiddle1
								{
									OFFSET -8.158691 -0.528496 0.196552
									CHANNELS 3 Xrotation Yrotation Zrotation
									JOINT mixamorig:RightHandMiddle2
									{
										OFFSET -3.890194 -0.261169 -0.136423
										CHANNELS 3 Xrotation Yrotation Zrotation
										JOINT mixamorig:RightHandMiddle3
										{
											OFFSET -3.903057 -0.179909 -0.137173
											CHANNELS 3 Xrotation Yrotation Zrotation
											JOINT mixamorig:RightHandMiddle4
											{
												OFFSET -2.366261 0.198380 -0.083987
												CHANNELS 3 Xrotation Yrotation Zrotation
												End Site
												{
													OFFSET -2.366409 0.198326 -0.079799
												}
											}
										}
									}
								}
								JOINT mixamorig:RightHandRing1
								{
									OFFSET -7.616104 -0.395126 -2.681268
									CHANNELS 3 Xrotation Yrotation Zrotation
									JOINT mixamorig:RightHandRing2
									{
										OFFSET -3.235790 -0.462120 -1.101476
										CHANNELS 3 Xrotation Yrotation Zrotation
										JOINT mixamorig:RightHandRing3
										{
											OFFSET -3.179264 -0.138618 -1.084847
											CHANNELS 3 Xrotation Yrotation Zrotation
											JOINT mixamorig:RightHandRing4
											{
												OFFSET -1.963291 -0.101624 -0.668250
												CHANNELS 3 Xrotation Yrotation Zrotation
												End Site
												{
													OFFSET -1.963745 -0.101669 -0.666919
												}
											}
										}
									}
								}
							}
						}
					}
				}
			}
		}
	}
	JOINT mixamorig:LeftUpLeg
	{
		OFFSET 10.205382 -3.823519 0.155145
		CHANNELS 3 Xrotation Yrotation Zrotation
		JOINT mixamorig:LeftLeg
		{
			OFFSET 0.283732 -12.998343 0.567794
			CHANNELS 3 Xrotation Yrotation Zrotation
			JOINT mixamorig:LeftFoot
			{
				OFFSET -1.058953 -10.688869 -2.184322
				CHANNELS 3 Xrotation Yrotation Zrotation
				JOINT mixamorig:LeftToeBase
				{
					OFFSET 0.108145 -7.191069 7.560211
					CHANNELS 3 Xrotation Yrotation Zrotation
					JOINT mixamorig:LeftToe_End
					{
						OFFSET 0.070226 0.081726 4.490266
						CHANNELS 3 Xrotation Yrotation Zrotation
						End Site
						{
							OFFSET 0.070226 0.081726 4.490267
						}
					}
				}
			}
		}
	}
	JOINT mixamorig:RightUpLeg
	{
		OFFSET -10.205383 -3.823513 0.005508
		CHANNELS 3 Xrotation Yrotation Zrotation
		JOINT mixamorig:RightLeg
		{
			OFFSET -0.283728 -12.998341 0.610627
			CHANNELS 3 Xrotation Yrotation Zrotation
			JOINT mixamorig:RightFoot
			{
				OFFSET 1.058956 -10.688892 -1.945833
				CHANNELS 3 Xrotation Yrotation Zrotation
				JOINT mixamorig:RightToeBase
				{
					OFFSET -0.108150 -7.191040 7.372945
					CHANNELS 3 Xrotation Yrotation Zrotation
					JOINT mixamorig:RightToe_End
					{
						OFFSET -0.070229 0.081738 4.479398
						CHANNELS 3 Xrotation Yrotation Zrotation
						End Site
						{
							OFFSET -0.070229 0.081738 4.479399
						}
					}
				}
			}
		}
	}
}
MOTION
Frames: 5
Frame Time: 0.016667
0.212415 30.352217 -0.992394 -8.584423 -12.996213 0.942949 -0.776180 1.890749 -3.402935 8.737513 0.082711 -0.966352 8.741233 0.148171 -0.949499 -1.671231 1.683761 0.533475 -18.043924 10.852439 -4.668320 0.000001 -0.000000 0.000001 0.963207 -5.156256 13.237885 67.203256 -38.879920 -45.835040 22.506829 -103.828581 20.335225 1.754022 -5.208150 56.955141 6.051304 32.638650 6.339489 1.111052 27.862100 11.541948 -2.289500 -13.278986 -6.237957 0.000000 -0.000002 0.000002 0.057417 22.538907 1.103154 5.072379 1.608383 -10.641163 8.393565 0.822263 -17.984795 0.000002 0.000003 -0.000001 -0.074587 -3.587532 6.790124 0.046188 2.386494 -19.167539 -0.432204 2.607941 -30.580820 -0.000004 -0.000002 0.000001 0.067918 -17.458655 4.402542 -4.437786 3.500747 -18.151182 0.201522 3.034798 -1.211153 0.000002 0.000005 -0.000000 0.762453 5.560960 0.631592 68.792368 2.055202 52.802311 8.403490 122.745125 -7.080960 16.125003 -8.184904 -11.303809 11.018920 -36.995621 0.832004 -0.386878 -30.116811 -13.748951 1.603843 14.152287 7.697686 0.000001 0.000001 0.000000 1.934762 -18.645178 2.000844 2.606738 -0.643900 6.983322 3.016584 -0.528979 8.206954 -0.000002 0.000004 -0.000001 -0.286906 2.859392 3.211899 -0.151491 -1.139566 8.541649 -0.393942 -1.175881 14.790182 -0.000004 -0.000000 -0.000001 -2.235113 19.144684 0.960290 -4.205058 -2.098017 13.365062 -2.506350 -1.864241 7.917204 0.000001 0.000001 -0.000001 -2.907348 0.292062 7.268253 48.905319 5.262506 5.029561 -32.653355 15.078689 -17.742759 -0.000013 -0.000011 0.000013 0.000000 -0.000000 0.000000 -13.032012 0.967797 -15.408861 59.979784 -0.738124 -8.488712 -36.243811 -9.201461 19.170309 -0.570344 -0.000008 0.000008 -0.000000 0.000002 0.000000 
0.249342 30.121857 -1.084814 -9.661484 -12.853269 0.322988 0.229436 2.088546 -3.203584 9.034431 0.139522 -0.678860 9.036264 0.204616 -0.657737 -2.023971 1.672551 0.401814 -18.612996 10.672168 -4.662133 0.000000 0.000000 -0.000000 0.936114 -4.984491 13.075038 66.563581 -39.070509 -45.077169 22.465413 -103.851599 20.295012 2.771129 -5.548194 57.114240 6.051305 32.638646 6.339493 1.111051 27.862102 11.541941 -2.289497 -13.278987 -6.237953 0.000002 0.000001 -0.000001 0.073814 22.544694 1.063687 5.078430 1.609288 -10.653622 8.399476 0.822469 -17.997243 -0.000001 0.000003 0.000001 -0.075569 -3.581685 6.753670 0.046606 2.388690 -19.181125 -0.431901 2.610148 -30.593657 0.000003 0.000002 -0.000001 0.057671 -17.452880 4.364089 -4.440312 3.504042 -18.163537 0.198929 3.036956 -1.222953 0.000001 0.000002 -0.000001 0.766965 5.750698 0.831764 70.031029 -0.495921 53.906288 7.604765 125.352700 -6.416880 16.146586 -8.207440 -10.171036 11.018920 -36.995621 0.832012 -0.386878 -30.116821 -13.748959 1.603851 14.152285 7.697684 0.000003 0.000003 -0.000001 1.958313 -18.652514 2.067878 2.618103 -0.646610 7.013210 3.027810 -0.531453 8.236902 -0.000001 0.000002 -0.000001 -0.287839 2.850432 3.269710 -0.151635 -1.144227 8.571478 -0.394170 -1.180504 14.818917 0.000001 0.000002 -0.000003 -2.251139 19.134930 1.014449 -4.212056 -2.104752 13.389892 -2.513634 -1.870076 7.941216 -0.000001 -0.000002 0.000000 -2.968663 0.485987 7.956796 51.482800 5.359581 5.238490 -34.108073 14.809798 -18.183058 -0.000003 -0.000014 0.000024 0.000000 -0.000000 0.000000 -12.403706 1.027815 -14.910875 61.169849 -0.990780 -8.696106 -36.910947 -9.467245 19.366554 -0.583225 0.000004 0.000010 -0.000000 -0.000001 0.000000 
0.298489 29.919262 -1.186856 -10.916854 -12.750403 -0.341517 1.411612 2.205073 -3.063867 9.362438 0.185477 -0.379316 9.362448 0.252100 -0.355565 -2.375105 1.630917 0.349360 -19.235133 10.410418 -4.613110 -0.000000 0.000000 -0.000000 0.911950 -4.821814 12.989724 65.845264 -39.283802 -44.253506 22.531942 -103.814675 20.359634 3.805107 -6.028969 57.311318 6.051310 32.638650 6.339491 1.111061 27.862107 11.541946 -2.289500 -13.278993 -6.237954 0.000002 -0.000006 0.000001 0.083498 22.548071 1.040364 5.082166 1.609910 -10.661381 8.403166 0.822603 -18.005029 -0.000001 0.000002 0.000004 -0.076229 -3.578125 6.731507 0.046927 2.390108 -19.189913 -0.431701 2.611593 -30.602010 -0.000003 0.000002 -0.000003 0.051225 -17.449252 4.340001 -4.442038 3.506265 -18.171969 0.197116 3.038417 -1.231086 0.000005 0.000006 -0.000004 0.770627 5.905503 1.018428 71.103485 -3.228484 55.172308 6.917096 127.907395 -5.862851 16.413914 -8.250995 -8.637363 11.018913 -36.995624 0.832004 -0.386882 -30.116821 -13.748953 1.603846 14.152285 7.697691 0.000004 0.000003 0.000001 2.022524 -18.672299 2.250318 2.649042 -0.653928 7.094613 3.058392 -0.538187 8.318400 0.000003 0.000002 0.000000 -0.289756 2.831369 3.392910 -0.151949 -1.154179 8.634996 -0.394627 -1.190365 14.880185 0.000002 0.000002 -0.000001 -2.270852 19.122948 1.081103 -4.220644 -2.113037 13.420457 -2.522577 -1.877208 7.970745 0.000001 0.000004 0.000003 -2.750299 1.115702 8.727794 53.686475 5.420528 5.607748 -35.401530 14.277084 -18.657819 -0.000058 -0.000011 0.000014 -0.000000 -0.000000 0.000000 -11.576854 0.976727 -14.332136 62.092840 -1.272870 -9.140125 -37.360554 -9.748117 19.672941 -0.650919 0.000002 0.000008 -0.000000 -0.000002 -0.000000 
0.361194 29.732788 -1.303836 -12.390641 -12.751134 -1.073536 2.760100 2.251397 -2.990355 9.715261 0.221887 -0.066204 9.713555 0.292208 -0.041426 -2.733366 1.567406 0.366069 -19.926387 10.108595 -4.536265 -0.000001 -0.000000 -0.000000 0.890054 -4.670477 12.980267 65.076615 -39.523153 -43.370274 22.698677 -103.723096 20.521667 4.822143 -6.629502 57.556727 6.051309 32.638650 6.339489 1.111054 27.862102 11.541941 -2.289495 -13.278986 -6.237957 -0.000002 -0.000003 0.000006 0.089528 22.550170 1.025899 5.084441 1.610243 -10.666058 8.405381 0.822689 -18.009693 0.000002 0.000007 0.000000 -0.076585 -3.575795 6.716881 0.047116 2.391018 -19.195589 -0.431560 2.612515 -30.607420 -0.000001 0.000002 -0.000004 0.046745 -17.446707 4.323093 -4.443269 3.507845 -18.177942 0.195848 3.039475 -1.236830 -0.000000 -0.000000 -0.000004 0.773931 6.032822 1.204461 71.950510 -6.047863 56.581007 6.349729 130.265819 -5.420455 16.957186 -8.306585 -6.697794 11.018931 -36.995614 0.832012 -0.386887 -30.116814 -13.748950 1.603847 14.152289 7.697685 0.000005 0.000003 -0.000000 2.134956 -18.706423 2.569482 2.703172 -0.666590 7.236935 3.111856 -0.549854 8.460950 0.000004 0.000002 -0.000003 -0.292885 2.800022 3.595457 -0.152410 -1.170519 8.739453 -0.395344 -1.206569 14.980849 0.000003 -0.000000 -0.000001 -2.296253 19.107417 1.167166 -4.231733 -2.123739 13.459952 -2.534131 -1.886468 8.008869 -0.000002 -0.000001 0.000002 -2.215128 2.098988 9.560520 55.606920 5.425199 6.095748 -36.611047 13.641267 -19.115811 0.000030 -0.000014 0.000017 0.000000 0.000000 0.000000 -10.639200 0.774073 -13.697014 62.864112 -1.457468 -9.846262 -37.624445 -10.012764 20.014075 -0.819621 -0.000007 0.000006 0.000000 -0.000001 -0.000000 
0.438743 29.556288 -1.438865 -14.077583 -12.930046 -1.890097 4.566700 2.121211 -3.111012 10.134789 0.234403 0.291384 10.131699 0.314972 0.312834 -3.123068 1.458580 0.556692 -20.840319 9.758827 -4.393183 -0.000000 -0.000000 -0.000000 0.873666 -4.562746 13.172516 64.087685 -39.786525 -42.377243 23.151117 -103.480979 20.961671 5.670273 -7.550939 57.912518 6.051301 32.638650 6.339493 1.111057 27.862106 11.541947 -2.289499 -13.278992 -6.237952 0.000002 -0.000002 -0.000002 0.083761 22.548186 1.039770 5.081470 1.609778 -10.659904 8.402469 0.822598 -18.003544 -0.000006 0.000003 0.000000 -0.076402 -3.576960 6.724229 0.046985 2.390332 -19.191331 -0.431670 2.611798 -30.603315 -0.000001 0.000001 -0.000000 0.047040 -17.446875 4.324253 -4.443098 3.507610 -18.177044 0.196024 3.039300 -1.235955 0.000003 -0.000000 -0.000004 0.778447 6.087989 1.396787 71.929863 -9.131965 58.125354 5.976453 131.955771 -5.137823 18.253078 -8.343095 -3.714055 11.018930 -36.995607 0.832016 -0.386881 -30.116824 -13.748956 1.603847 14.152287 7.697689 0.000000 0.000002 0.000001 2.430532 -18.793064 3.406143 2.845117 -0.699130 7.609777 3.252089 -0.579785 8.834360 -0.000002 0.000001 0.000001 -0.300406 2.718828 4.119259 -0.153472 -1.212776 9.009592 -0.397068 -1.248509 15.241256 -0.000004 -0.000001 -0.000001 -2.358055 19.069468 1.376743 -4.258723 -2.149845 13.556096 -2.562222 -1.909022 8.101720 0.000001 -0.000002 0.000001 -1.324042 3.305699 10.410792 57.273738 5.337823 6.606404 -37.774129 13.103871 -19.470617 -0.000023 -0.000009 0.000013 -0.000000 -0.000001 0.000000 -9.710855 0.414401 -13.031618 63.570244 -1.436730 -10.815657 -37.708190 -10.225382 20.317912 -1.115533 -0.000013 0.000005 -0.000000 -0.000001 -0.000000 
